# Blender 5.0.1
# www.blender.org
mtllib right_hand.mtl
o Plane005
v -0.140162 -1.787977 0.073523
v -0.062478 -1.586767 0.063608
v -0.161618 -1.595603 0.055337
v -0.055896 -1.787023 0.075468
v 0.032988 -1.796430 0.061698
v 0.021244 -1.603472 0.046816
v 0.123642 -1.652361 0.016326
v 0.112793 -1.819623 0.019163
v -0.222087 -1.725958 -0.000283
v -0.060339 -1.905954 0.082334
v 0.028388 -1.915460 0.070100
v 0.112814 -1.909226 0.025427
v -0.296361 -1.785976 -0.025894
v -0.218235 -1.685497 -0.051329
v -0.207396 -1.616133 0.009836
v -0.205299 -1.564770 -0.053380
v -0.204620 -1.424886 -0.001635
v -0.244165 -1.444950 -0.026251
v -0.220482 -1.452598 -0.065638
v -0.263029 -1.727069 -0.021396
v -0.244817 -1.687646 -0.057631
v -0.231318 -1.711482 -0.101171
v -0.286683 -1.709805 -0.033675
v -0.261050 -1.683005 -0.064808
v -0.248094 -1.699687 -0.105982
v -0.131681 -1.503189 0.004009
v -0.167030 -1.419595 -0.012609
v -0.213761 -1.393798 -0.010599
v -0.251815 -1.412367 -0.033779
v -0.230031 -1.425858 -0.069861
v -0.173301 -1.389764 -0.022168
v -0.220198 -1.368236 -0.022998
v -0.255141 -1.385184 -0.046512
v -0.230544 -1.398186 -0.081484
v -0.180359 -1.363628 -0.037794
v -0.181381 -1.378522 -0.069882
v -0.228203 -1.319140 -0.049343
v -0.258656 -1.332734 -0.069866
v -0.235490 -1.344275 -0.097646
v -0.188853 -1.316949 -0.060926
v -0.191933 -1.337042 -0.094112
v -0.229394 -1.303911 -0.054979
v -0.262272 -1.319629 -0.077752
v -0.237193 -1.331398 -0.105100
v -0.191508 -1.301097 -0.067095
v -0.193154 -1.321359 -0.099959
v -0.230004 -1.292862 -0.061784
v -0.264358 -1.307486 -0.082487
v -0.241194 -1.318680 -0.110392
v -0.191500 -1.291440 -0.076469
v -0.195494 -1.307792 -0.105249
v -0.232777 -1.275216 -0.074605
v -0.265742 -1.276698 -0.103480
v -0.248935 -1.282665 -0.125602
v -0.197528 -1.262124 -0.090390
v -0.198891 -1.274091 -0.117830
v -0.266767 -1.235748 -0.127097
v -0.245702 -1.232893 -0.141943
v -0.214463 -1.226780 -0.134105
v -0.312740 -1.765798 -0.034644
v -0.304470 -1.796178 -0.099361
v -0.263271 -1.766629 -0.131566
v -0.345217 -1.699251 -0.081124
v -0.314948 -1.652019 -0.071641
v -0.290121 -1.652460 -0.097073
v -0.290903 -1.659102 -0.135351
v -0.341629 -1.720164 -0.129364
v -0.307346 -1.687866 -0.151018
v -0.175887 -1.543757 0.048252
v -0.220786 -1.564320 -0.001783
v -0.124196 -1.558369 0.037949
v -0.102835 -1.558875 0.040927
v -0.024485 -1.557086 0.043957
v -0.005755 -1.563251 0.044569
v 0.063254 -1.593841 0.029401
v 0.080966 -1.597619 0.026545
v 0.162219 -1.666983 -0.018205
v 0.154905 -1.820132 -0.012095
v -0.135815 -1.513381 -0.032291
v -0.207550 -1.220755 -0.113073
v -0.243303 -1.201727 -0.118352
v -0.201489 -1.615106 -0.049294
v -0.255136 -1.256133 -0.101004
v -0.234257 -1.256852 -0.088127
v -0.213708 -1.248146 -0.092047
v -0.222675 -1.205055 -0.117246
v -0.260993 -1.217166 -0.125471
v -0.153523 -1.676190 0.065651
v 0.153105 -1.736296 -0.018787
v 0.117767 -1.726197 0.016155
v 0.031958 -1.702722 0.055190
v -0.058390 -1.679996 0.072528
v 0.156043 -1.654966 -0.064123
v -0.166085 -1.546575 -0.053294
v 0.028676 -1.548094 -0.054791
v -0.145438 -1.486709 0.001896
v -0.184585 -1.505342 0.023837
v -0.226811 -1.530515 -0.002995
v -0.213934 -1.528360 -0.052132
v -0.230128 -1.227101 -0.147718
v -0.223865 -1.283334 -0.136265
v -0.215634 -1.316650 -0.115420
v -0.213999 -1.329544 -0.110495
v -0.208877 -1.342961 -0.102186
v -0.201175 -1.389827 -0.089183
v -0.195509 -1.416335 -0.076786
v -0.184931 -1.441603 -0.070469
v -0.237408 -1.209155 -0.124904
v -0.163655 -1.433404 -0.050318
v -0.172132 -1.409073 -0.057570
v -0.176029 -1.511648 -0.057279
v -0.151858 -1.497216 -0.036333
v -0.110548 -1.474490 -0.007194
v -0.118828 -1.380921 -0.040687
v -0.078263 -1.372133 -0.018945
v -0.069568 -1.468108 0.019383
v -0.104889 -1.482071 -0.041413
v -0.108120 -1.398745 -0.087161
v -0.037935 -1.372480 -0.033951
v -0.027304 -1.473086 0.001334
v -0.021208 -1.499050 0.013893
v -0.033897 -1.485619 -0.037297
v -0.029246 -1.510776 -0.036440
v -0.123382 -1.352427 -0.050918
v -0.082772 -1.345562 -0.029045
v -0.109212 -1.366329 -0.089972
v -0.042663 -1.346126 -0.044158
v -0.046717 -1.391819 -0.077122
v -0.122953 -1.329036 -0.066675
v -0.083789 -1.322626 -0.044387
v -0.110155 -1.343166 -0.104835
v -0.043386 -1.321825 -0.062638
v -0.126548 -1.293715 -0.094091
v -0.087896 -1.283638 -0.076744
v -0.109796 -1.309778 -0.124096
v -0.050825 -1.288261 -0.093748
v -0.053319 -1.340718 -0.103125
v -0.061832 -1.308660 -0.124993
v -0.125458 -1.279455 -0.100025
v -0.087550 -1.268572 -0.082954
v -0.106809 -1.296041 -0.129859
v -0.051892 -1.272357 -0.100313
v -0.061477 -1.293148 -0.131429
v -0.126329 -1.267266 -0.105056
v -0.087453 -1.257768 -0.090175
v -0.109545 -1.282987 -0.135205
v -0.051785 -1.263111 -0.110079
v -0.062459 -1.279526 -0.137051
v -0.127120 -1.239284 -0.130200
v -0.090093 -1.241150 -0.106841
v -0.113672 -1.243696 -0.152136
v -0.056417 -1.233379 -0.128441
v -0.062354 -1.241532 -0.152534
v -0.104366 -1.200410 -0.173983
v -0.120935 -1.195843 -0.153783
v -0.062158 -1.191314 -0.154065
v -0.071766 -1.198200 -0.171330
v -0.089297 -1.196927 -0.182346
v -0.090877 -1.248059 -0.166398
v -0.085003 -1.285313 -0.143819
v -0.084661 -1.298166 -0.138497
v -0.084263 -1.312967 -0.132336
v -0.074094 -1.339804 -0.114050
v -0.074026 -1.363495 -0.098738
v -0.050696 -1.365715 -0.087331
v -0.071524 -1.396752 -0.094652
v -0.068168 -1.497817 -0.051997
v -0.091512 -1.176661 -0.153719
v -0.069820 -1.216663 -0.128705
v -0.090418 -1.222447 -0.121255
v -0.112811 -1.219427 -0.130813
v -0.074442 -1.174947 -0.154671
v -0.091606 -1.167527 -0.153411
v -0.109991 -1.177524 -0.154304
v -0.062551 -1.507667 0.041784
v -0.112162 -1.501799 0.008873
v -0.108416 -1.506731 -0.034628
v -0.071114 -1.529633 -0.051352
v -0.002036 -1.481749 0.006368
v -0.001804 -1.404520 -0.040062
v 0.038051 -1.404888 -0.031987
v 0.035310 -1.488797 0.021054
v 0.001900 -1.499519 -0.039705
v 0.004738 -1.427844 -0.082880
v 0.074124 -1.407843 -0.046812
v 0.071023 -1.503434 0.005495
v 0.073123 -1.533583 0.011194
v 0.061138 -1.517526 -0.037713
v 0.064846 -1.535235 -0.041315
v -0.001974 -1.383945 -0.052743
v 0.037023 -1.377750 -0.042644
v 0.005252 -1.403572 -0.092281
v 0.074098 -1.382784 -0.060411
v 0.063278 -1.426873 -0.081444
v -0.001484 -1.358908 -0.066001
v 0.036391 -1.352433 -0.052808
v 0.006376 -1.378432 -0.102465
v 0.072391 -1.355692 -0.073758
v 0.061809 -1.401472 -0.091620
v -0.000789 -1.316118 -0.094433
v 0.035145 -1.305425 -0.088655
v 0.012162 -1.341392 -0.121942
v 0.070708 -1.314392 -0.104871
v 0.059017 -1.372833 -0.102548
v 0.056438 -1.340388 -0.126717
v -0.001254 -1.305833 -0.104341
v 0.034723 -1.293355 -0.097882
v 0.012528 -1.330750 -0.130295
v 0.068936 -1.301659 -0.114511
v 0.057434 -1.328388 -0.135963
v -0.002305 -1.296975 -0.113332
v 0.034089 -1.285412 -0.106913
v 0.011070 -1.319949 -0.138379
v 0.066914 -1.294587 -0.126255
v 0.054419 -1.317067 -0.144505
v -0.002656 -1.274875 -0.143104
v 0.033002 -1.271309 -0.124300
v 0.007203 -1.289409 -0.162616
v 0.062956 -1.270522 -0.147158
v 0.054716 -1.288605 -0.166491
v 0.014310 -1.251833 -0.189727
v 0.000185 -1.242147 -0.172201
v 0.056645 -1.238868 -0.177364
v 0.046689 -1.249358 -0.190213
v 0.027791 -1.251139 -0.198814
v 0.027446 -1.297506 -0.175349
v 0.033221 -1.324158 -0.147248
v 0.034172 -1.334445 -0.139405
v 0.035273 -1.346282 -0.130345
v 0.034529 -1.378801 -0.113917
v 0.034727 -1.405826 -0.103526
v 0.032335 -1.433388 -0.092953
v 0.028596 -1.519142 -0.048669
v 0.028037 -1.227537 -0.183864
v 0.050625 -1.255165 -0.150820
v 0.031957 -1.258063 -0.141634
v 0.010673 -1.257329 -0.149474
v 0.045327 -1.223935 -0.181306
v 0.027530 -1.216989 -0.180712
v 0.010394 -1.225902 -0.177909
v 0.034562 -1.526750 0.043433
v -0.007634 -1.504682 0.011869
v -0.004539 -1.518607 -0.036379
v 0.103737 -1.515373 -0.018652
v 0.114964 -1.478177 -0.045366
v 0.150744 -1.484310 -0.033986
v 0.139971 -1.528769 -0.013343
v 0.112503 -1.525821 -0.065873
v 0.121109 -1.497973 -0.080621
v 0.186467 -1.499833 -0.044491
v 0.175194 -1.545279 -0.027750
v 0.170313 -1.577927 -0.025252
v 0.166318 -1.543625 -0.063562
v 0.160824 -1.572324 -0.060952
v 0.121323 -1.460767 -0.057590
v 0.155588 -1.466402 -0.041579
v 0.128690 -1.479469 -0.093197
v 0.191480 -1.480736 -0.052542
v 0.127064 -1.440280 -0.067427
v 0.159795 -1.445670 -0.049932
v 0.138570 -1.457665 -0.101592
v 0.194534 -1.462088 -0.062874
v 0.138229 -1.402063 -0.099336
v 0.170085 -1.398440 -0.083846
v 0.148821 -1.425655 -0.121120
v 0.203450 -1.413183 -0.091048
v 0.184964 -1.475550 -0.091123
v 0.193401 -1.434613 -0.114761
v 0.140163 -1.391407 -0.110230
v 0.172330 -1.385220 -0.092849
v 0.151814 -1.415360 -0.129254
v 0.204687 -1.399101 -0.100683
v 0.195752 -1.421069 -0.124026
v 0.141973 -1.382111 -0.116589
v 0.173486 -1.377146 -0.101004
v 0.154730 -1.404296 -0.136216
v 0.204721 -1.393894 -0.109942
v 0.197768 -1.410679 -0.131132
v 0.146712 -1.364440 -0.138122
v 0.176536 -1.365409 -0.114902
v 0.156458 -1.378215 -0.155014
v 0.207446 -1.366658 -0.130901
v 0.201604 -1.381692 -0.150946
v 0.168909 -1.344022 -0.177006
v 0.156895 -1.333410 -0.162286
v 0.207452 -1.335916 -0.157656
v 0.199602 -1.344067 -0.171621
v 0.185523 -1.343272 -0.182648
v 0.177476 -1.386858 -0.163991
v 0.176829 -1.411791 -0.139706
v 0.174436 -1.421493 -0.133066
v 0.171680 -1.432660 -0.125393
v 0.162978 -1.469255 -0.107259
v 0.158409 -1.486511 -0.100009
v 0.185982 -1.492887 -0.076317
v 0.149433 -1.510724 -0.085770
v 0.179193 -1.512221 -0.071461
v 0.136074 -1.541330 -0.083641
v 0.185174 -1.322200 -0.167612
v 0.197925 -1.351178 -0.135409
v 0.179270 -1.352405 -0.130203
v 0.161154 -1.349333 -0.140807
v 0.198866 -1.320914 -0.162277
v 0.185006 -1.312577 -0.164224
v 0.168293 -1.319224 -0.164945
v 0.137907 -1.566309 0.010988
v 0.088305 -1.535785 0.001207
v 0.096503 -1.541557 -0.058899
v 0.127970 -1.572997 -0.092081
v 0.025624 -1.645387 -0.067684
v 0.130499 -1.644126 -0.089548
v 0.147836 -1.742014 -0.051731
v 0.021530 -1.722012 -0.087393
v 0.119838 -1.718128 -0.094712
v -0.285418 -1.821677 -0.095272
v -0.228198 -1.885370 -0.064314
v -0.232892 -1.802376 -0.137851
v 0.142550 -1.823866 -0.052469
v -0.056342 -1.794699 -0.108164
v -0.157139 -1.762792 -0.136831
v 0.014630 -1.878154 -0.107181
v -0.068658 -1.945946 -0.104192
v 0.100592 -2.017704 0.021313
v 0.031345 -1.942402 -0.085355
v -0.133644 -2.036158 -0.050605
v -0.062570 -2.055865 0.061554
v 0.030293 -2.040316 0.060644
v 0.118363 -2.203782 0.024176
v 0.053268 -2.199482 0.071083
v -0.061246 -2.200299 0.078819
v -0.130785 -2.195209 0.036512
v -0.129230 -2.201668 -0.063685
v -0.043203 -2.202663 -0.121797
v 0.056613 -2.196582 -0.106499
v -0.186181 -1.853173 -0.142485
v -0.077652 -1.637516 -0.060694
v -0.144327 -1.622798 -0.070330
v -0.102404 -1.729418 -0.081180
v -0.162846 -1.694229 -0.072030
v -0.125523 -2.048809 0.022317
v -0.180256 -1.901156 0.044979
v -0.223521 -1.832125 0.010643
v -0.208670 -1.686819 0.012563
v -0.361749 -1.683892 -0.091735
v -0.358079 -1.708520 -0.138054
v -0.322462 -1.675002 -0.156217
v -0.331238 -1.638005 -0.074570
v -0.307746 -1.626431 -0.106524
v -0.371291 -1.668393 -0.103184
v -0.368272 -1.696029 -0.145684
v -0.336967 -1.662899 -0.166835
v -0.341079 -1.624795 -0.082903
v -0.318445 -1.615077 -0.119704
v -0.383458 -1.648395 -0.115195
v -0.394344 -1.660918 -0.165059
v -0.370012 -1.633460 -0.181081
v -0.378262 -1.598189 -0.100525
v -0.358458 -1.589532 -0.134675
v -0.429074 -1.622166 -0.176524
v -0.419883 -1.602074 -0.184090
v -0.406916 -1.569309 -0.142541
v -0.417316 -1.572158 -0.127417
v -0.362288 -1.592502 -0.174676
v -0.420465 -1.576743 -0.168394
v -0.322516 -1.624832 -0.156576
v -0.307638 -1.642139 -0.144926
v -0.436927 -1.589165 -0.150375
v -0.398954 -1.605624 -0.109253
v -0.403774 -1.631368 -0.127043
v -0.408894 -1.642949 -0.152209
v -0.436377 -1.577878 -0.130517
v -0.450271 -1.594968 -0.145213
v -0.446284 -1.612938 -0.163760
v -0.132780 -1.982111 0.040846
v -0.135092 -1.910232 0.066970
v -0.062636 -2.018979 -0.092020
v 0.112687 -1.961462 0.022653
v 0.031468 -1.977420 0.059154
v -0.062068 -1.986223 0.065510
v 0.139383 -1.899841 -0.017031
v -0.200386 -1.659498 -0.051255
v -0.196178 -1.710734 -0.103427
v -0.112990 -1.811141 -0.150309
v -0.035343 -1.875226 -0.115919
v -0.098863 -1.874767 -0.140428
v -0.196425 -1.811586 0.047122
v 0.102156 -1.902492 -0.070828
v 0.007294 -1.796222 -0.098217
v -0.186142 -1.932725 -0.054638
v -0.134496 -1.910279 -0.123977
v -0.205157 -1.889917 0.004078
v -0.154805 -1.972902 -0.042670
v 0.041974 -2.007518 -0.090737
v 0.118228 -1.952982 -0.029642
v 0.066091 -1.827037 -0.115726
v 0.098326 -1.791576 -0.109672
v 0.110204 -2.007317 -0.040432
v 0.121409 -2.197562 -0.059002
vn 0.0326 0.2456 0.9688
vn -0.3591 0.1615 0.9192
vn -0.3766 0.0698 0.9237
vn 0.0694 0.0780 0.9945
vn 0.3016 0.0591 0.9516
vn 0.2612 0.1287 0.9567
vn 0.5437 0.0088 0.8392
vn 0.5041 0.0230 0.8633
vn 0.2815 0.1716 0.9441
vn 0.4029 0.1272 0.9064
vn -0.7023 0.3026 0.6443
vn -0.8727 0.1532 0.4636
vn -0.7472 0.3100 -0.5879
vn -0.4850 0.8662 -0.1201
vn -0.3032 0.0205 0.9527
vn -0.4253 -0.2307 0.8752
vn -0.0265 -0.0932 0.9953
vn 0.0467 0.0391 0.9981
vn 0.2893 -0.0517 0.9559
vn 0.3180 0.0487 0.9468
vn 0.6917 -0.0911 0.7164
vn 0.5845 0.0141 0.8113
vn -0.3044 0.4084 0.8606
vn -0.6872 -0.3061 0.6588
vn -0.7815 -0.2567 0.5687
vn -0.9521 -0.1227 0.2800
vn -0.9494 -0.0467 0.3104
vn -0.1997 0.3153 0.9277
vn -0.1644 0.2337 0.9583
vn -0.5237 -0.2725 -0.8072
vn -0.6203 -0.1921 -0.7605
vn 0.0625 0.9721 0.2262
vn -0.2413 0.4651 0.8517
vn -0.7723 -0.1838 0.6081
vn 0.4388 0.8345 0.3334
vn 0.1613 0.6658 -0.7285
vn 0.6218 0.5569 -0.5506
vn -0.7586 -0.5300 -0.3790
vn -0.7187 -0.6263 -0.3022
vn -0.0105 -0.0893 -0.9960
vn -0.2910 -0.1385 -0.9466
vn 0.7061 0.5349 0.4640
vn 0.7567 0.3595 0.5461
vn 0.2449 0.8602 0.4473
vn 0.2620 0.6794 -0.6854
vn 0.7889 0.2396 -0.5659
vn -0.1994 0.3232 0.9251
vn -0.9570 -0.0797 0.2788
vn -0.5767 -0.3432 -0.7414
vn 0.7376 0.4220 0.5271
vn 0.8911 0.1302 -0.4347
vn 0.8921 0.1144 -0.4370
vn -0.2236 0.4208 0.8791
vn -0.9857 0.0020 0.1683
vn -0.5118 -0.3461 -0.7863
vn 0.7768 0.4332 0.4570
vn 0.8930 0.0208 -0.4496
vn -0.2246 0.3853 0.8950
vn -0.9805 -0.0447 0.1912
vn -0.5169 -0.4117 -0.7506
vn 0.8110 0.3421 0.4746
vn 0.8484 -0.0797 -0.5234
vn -0.6772 -0.3289 0.6582
vn -0.7155 -0.3431 0.6086
vn -0.8052 -0.5282 -0.2697
vn -0.1452 -0.1627 0.9759
vn -0.2355 0.0088 0.9718
vn 0.2654 0.0349 0.9635
vn 0.2751 -0.0909 0.9571
vn 0.8240 -0.0189 0.5663
vn 0.7986 -0.1613 0.5799
vn -0.7434 -0.6528 -0.1457
vn -0.2066 0.4209 0.8833
vn -0.9830 -0.1195 0.1395
vn -0.4686 -0.4752 -0.7447
vn 0.7557 0.3897 0.5263
vn 0.8486 -0.1124 -0.5170
vn -0.1929 0.5145 0.8355
vn -0.9821 0.0070 0.1880
vn -0.5289 -0.4417 -0.7247
vn 0.8451 0.3705 0.3854
vn 0.8527 -0.1139 -0.5098
vn -0.2244 0.4889 0.8430
vn -0.9984 0.0072 0.0561
vn -0.5444 -0.3652 -0.7552
vn 0.7920 0.4239 0.4393
vn 0.8615 -0.0232 -0.5072
vn -0.9463 0.2063 -0.2490
vn -0.5420 0.1614 -0.8247
vn 0.7156 0.4063 -0.5683
vn 0.7627 0.6232 0.1727
vn 0.0482 0.5021 0.8634
vn -0.7667 -0.2170 0.6043
vn 0.6684 0.7090 0.2250
vn 0.7408 0.4008 -0.5391
vn -0.6084 -0.6403 -0.4688
vn 0.2870 -0.1612 -0.9443
vn 0.0136 0.4722 0.8814
vn -0.2459 0.2663 0.9320
vn -0.9627 -0.1061 0.2491
vn -0.9360 -0.0531 0.3480
vn -0.2463 0.4351 0.8660
vn -0.5357 0.5846 0.6093
vn -0.0151 0.4064 0.9136
vn 0.2694 0.3448 0.8992
vn 0.5765 0.6273 0.5236
vn 0.0406 0.3133 0.9488
vn 0.1741 0.2699 0.9470
vn -0.2602 0.7423 0.6175
vn 0.6740 0.4038 0.6186
vn 0.1027 0.7895 0.6051
vn 0.4342 0.2158 0.8746
vn 0.9462 -0.0558 0.3186
vn 0.9413 -0.0910 0.3252
vn 0.9563 -0.0242 0.2913
vn -0.5119 0.4580 -0.7268
vn 0.1601 -0.3138 -0.9359
vn 0.0873 0.3558 -0.9305
vn 0.2058 -0.3781 -0.9026
vn 0.1705 -0.3965 -0.9021
vn 0.2543 -0.3417 -0.9048
vn 0.2863 -0.2791 -0.9166
vn 0.3063 -0.2142 -0.9275
vn 0.3526 -0.1051 -0.9299
vn 0.2787 -0.0413 -0.9595
vn 0.0932 0.5595 -0.8236
vn 0.1736 0.5033 0.8465
vn -0.2558 0.4421 0.8597
vn -0.6455 0.3263 0.6906
vn 0.4218 0.9066 0.0076
vn -0.2429 0.9696 -0.0289
vn -0.7181 0.6559 -0.2328
vn -0.0036 0.1741 -0.9847
vn 0.0374 0.1256 -0.9914
vn -0.2423 0.5748 -0.7816
vn 0.4654 0.4920 -0.7357
vn 0.9656 -0.0837 0.2461
vn 0.9072 -0.0825 -0.4126
vn 0.8838 -0.0861 -0.4599
vn 0.8531 -0.0915 -0.5137
vn 0.8420 -0.1630 -0.5143
vn -0.4050 0.7167 -0.5677
vn 0.3327 0.7086 -0.6223
vn -0.6433 -0.1043 -0.7585
vn -0.7606 -0.0186 -0.6490
vn -0.0927 0.1113 -0.9895
vn 0.0031 0.1577 -0.9875
vn -0.0653 0.2591 -0.9636
vn -0.9160 0.0679 0.3954
vn -0.9124 0.1675 0.3734
vn -0.0846 0.4276 0.9000
vn -0.0819 0.3444 0.9353
vn -0.6868 -0.2483 -0.6831
vn -0.7804 -0.1896 -0.5958
vn 0.8634 0.3316 0.3803
vn 0.8623 0.2804 0.4217
vn 0.8203 -0.0259 -0.5713
vn -0.1064 0.4475 0.8879
vn -0.9160 0.1485 0.3727
vn -0.7132 -0.2702 -0.6468
vn 0.8226 0.3458 0.4514
vn 0.8184 -0.0949 -0.5668
vn 0.8128 -0.1465 -0.5638
vn -0.0765 0.6027 0.7943
vn -0.9286 0.2072 0.3079
vn -0.6449 -0.4328 -0.6299
vn 0.8625 0.3839 0.3297
vn 0.7691 -0.2712 -0.5787
vn -0.0609 0.5310 0.8452
vn -0.9646 0.1654 0.2055
vn -0.6601 -0.3310 -0.6743
vn 0.9186 0.2813 0.2777
vn 0.7121 -0.2634 -0.6508
vn -0.0075 0.4725 0.8813
vn -0.9487 0.1464 0.2801
vn -0.6353 -0.2942 -0.7141
vn 0.8760 0.2791 0.3933
vn 0.7379 -0.2541 -0.6252
vn 0.0124 0.6047 0.7964
vn -0.9259 0.2014 0.3196
vn -0.6828 -0.3788 -0.6248
vn 0.9283 0.2839 0.2402
vn 0.7408 -0.2623 -0.6184
vn -0.0304 0.6002 0.7993
vn -0.9748 0.1654 0.1500
vn -0.6958 -0.2986 -0.6532
vn 0.9051 0.3127 0.2880
vn 0.7699 -0.1944 -0.6078
vn -0.9079 0.4056 -0.1059
vn -0.6356 0.2079 -0.7435
vn 0.6598 0.2753 -0.6992
vn 0.8588 0.5108 -0.0396
vn -0.0317 -0.3896 -0.9204
vn -0.0127 0.3088 -0.9510
vn 0.0081 -0.4275 -0.9040
vn -0.0017 -0.3818 -0.9242
vn 0.0119 -0.4479 -0.8940
vn 0.1206 -0.5152 -0.8486
vn 0.1288 -0.3683 -0.9207
vn 0.1448 -0.2644 -0.9535
vn 0.0667 -0.1927 -0.9790
vn -0.0288 0.3034 -0.9524
vn 0.3994 0.4922 0.7734
vn -0.0413 0.5021 0.8638
vn -0.4604 0.4579 0.7605
vn 0.4665 0.8220 -0.3267
vn -0.0928 0.9780 -0.1866
vn -0.5785 0.7567 -0.3044
vn -0.8161 0.2843 0.5031
vn -0.7567 0.3978 0.5189
vn 0.1206 0.4626 0.8784
vn 0.1206 0.4711 0.8738
vn -0.7938 -0.2445 -0.5569
vn -0.8307 -0.0538 -0.5540
vn 0.8868 0.2433 0.3928
vn 0.9097 0.1943 0.3671
vn 0.7917 -0.0486 -0.6090
vn 0.0832 0.4268 0.9005
vn -0.8532 0.2333 0.4665
vn -0.7802 -0.2174 -0.5865
vn 0.9276 0.1926 0.3200
vn 0.7481 -0.2793 -0.6020
vn 0.7448 -0.2235 -0.6288
vn 0.0724 0.5064 0.8593
vn -0.8628 0.2845 0.4178
vn -0.7700 -0.2347 -0.5933
vn 0.9214 0.2434 0.3030
vn 0.7398 -0.2758 -0.6137
vn 0.0755 0.6174 0.7830
vn -0.8728 0.3152 0.3727
vn -0.7431 -0.3449 -0.5735
vn 0.9390 0.2362 0.2499
vn 0.6801 -0.4093 -0.6082
vn 0.0717 0.7082 0.7023
vn -0.9011 0.2743 0.3359
vn -0.7141 -0.4618 -0.5261
vn 0.9035 0.3703 0.2160
vn 0.6883 -0.4038 -0.6027
vn 0.0637 0.7747 0.6291
vn -0.9049 0.3022 0.2995
vn -0.7378 -0.4876 -0.4667
vn 0.9457 0.3114 0.0937
vn 0.6720 -0.4214 -0.6090
vn 0.0508 0.7425 0.6680
vn -0.9472 0.2594 0.1883
vn -0.7563 -0.4043 -0.5143
vn 0.9287 0.3316 0.1663
vn 0.7123 -0.3602 -0.6024
vn -0.9116 0.4018 -0.0864
vn -0.6887 0.0205 -0.7248
vn 0.6003 0.0648 -0.7972
vn 0.8615 0.4641 -0.2058
vn -0.0959 -0.5805 -0.8086
vn -0.0904 0.0440 -0.9949
vn -0.0594 -0.6426 -0.7639
vn -0.0631 -0.6074 -0.7919
vn -0.0144 -0.5461 -0.8376
vn 0.0251 -0.4136 -0.9101
vn 0.0436 -0.3521 -0.9350
vn -0.0279 -0.4100 -0.9117
vn -0.0463 -0.1019 -0.9937
vn -0.0959 0.2516 -0.9631
vn 0.4395 0.6556 0.6141
vn 0.0192 0.6994 0.7145
vn -0.3819 0.6324 0.6740
vn 0.5339 0.7660 -0.3581
vn -0.0985 0.9431 -0.3176
vn -0.6593 0.7113 -0.2438
vn -0.7796 0.4778 0.4050
vn -0.5719 0.6824 0.4552
vn 0.2990 0.4179 0.8579
vn 0.1333 0.4145 0.9002
vn -0.7734 -0.0427 -0.6324
vn -0.7581 0.2339 -0.6087
vn 0.9147 0.0104 0.4039
vn 0.8675 -0.0390 0.4960
vn 0.7943 -0.2562 -0.5508
vn 0.0715 0.4215 0.9040
vn -0.8339 0.4457 0.3255
vn -0.7059 -0.1046 -0.7006
vn 0.8764 0.0354 0.4803
vn 0.7574 -0.4124 -0.5063
vn 0.8160 -0.3893 -0.4273
vn 0.0473 0.4926 0.8689
vn -0.8328 0.4583 0.3103
vn -0.7014 -0.1236 -0.7020
vn 0.9014 0.0937 0.4228
vn 0.7346 -0.4212 -0.5319
vn 0.0177 0.5922 0.8056
vn -0.8859 0.4024 0.2309
vn -0.6936 -0.2712 -0.6673
vn 0.8992 0.1342 0.4164
vn 0.7356 -0.4426 -0.5128
vn 0.0046 0.6755 0.7374
vn -0.9342 0.3321 0.1302
vn -0.6515 -0.3361 -0.6802
vn 0.8754 0.2730 0.3989
vn 0.7250 -0.4673 -0.5059
vn 0.0131 0.7286 0.6848
vn -0.8959 0.4105 0.1701
vn -0.6708 -0.3662 -0.6449
vn 0.9389 0.2042 0.2769
vn 0.7523 -0.4603 -0.4714
vn 0.0078 0.7044 0.7097
vn -0.9364 0.3451 0.0639
vn -0.6982 -0.3142 -0.6433
vn 0.9095 0.2531 0.3299
vn 0.7789 -0.3773 -0.5009
vn -0.8322 0.5162 -0.2022
vn -0.5506 0.1050 -0.8281
vn 0.7452 0.0387 -0.6657
vn 0.9211 0.3879 -0.0330
vn 0.0110 -0.5366 -0.8438
vn 0.1209 0.1071 -0.9869
vn 0.0356 -0.6013 -0.7982
vn 0.0211 -0.5655 -0.8245
vn 0.0214 -0.5288 -0.8485
vn 0.0561 -0.4465 -0.8930
vn 0.0821 -0.4533 -0.8875
vn 0.0538 -0.3670 -0.9287
vn 0.0201 -0.0232 -0.9995
vn 0.1277 0.3068 -0.9432
vn 0.3977 0.5879 0.7044
vn -0.0415 0.6640 0.7466
vn -0.4377 0.6366 0.6350
vn 0.6759 0.7095 -0.1996
vn 0.0645 0.9621 -0.2650
vn -0.5374 0.7838 -0.3113
vn 0.1496 0.1384 -0.9790
vn -0.1279 0.1484 -0.9806
vn 0.3235 0.0296 -0.9458
vn 0.0022 0.4559 -0.8900
vn -0.0006 0.6539 -0.7566
vn 0.3949 0.0413 -0.9178
vn -0.0771 0.2176 -0.9730
vn 0.1038 0.4376 -0.8932
vn 0.1558 0.4003 -0.9030
vn 0.1619 -0.1364 -0.9773
vn 0.2498 -0.0929 -0.9638
vn 0.2478 0.2806 -0.9273
vn -0.0244 0.1922 -0.9811
vn -0.3086 -0.3522 -0.8836
vn -0.2097 -0.5411 -0.8144
vn -0.6906 -0.6909 -0.2138
vn 0.2289 0.1822 -0.9563
vn 0.8983 0.0383 -0.4378
vn 0.9079 -0.2214 -0.3561
vn 0.3450 0.1247 -0.9303
vn 0.3500 0.0859 -0.9328
vn 0.9065 0.1064 -0.4086
vn 0.3108 0.0974 0.9455
vn 0.8496 0.0930 0.5191
vn -0.2387 0.1003 0.9659
vn -0.8495 -0.0904 0.5198
vn -0.8508 0.0599 0.5221
vn -0.8801 -0.0904 -0.4660
vn -0.8665 0.0424 -0.4974
vn -0.2446 0.0023 -0.9696
vn -0.2253 0.1041 -0.9687
vn -0.6677 -0.0289 0.7438
vn -0.7291 -0.3045 0.6129
vn -0.5377 -0.7464 -0.3921
vn 0.3146 -0.2552 -0.9143
vn -0.0824 0.4437 0.8924
vn 0.6732 0.7034 0.2282
vn -0.7978 -0.2421 0.5522
vn -0.5862 -0.6880 -0.4278
vn 0.2909 -0.2716 -0.9174
vn -0.0969 0.5663 0.8185
vn 0.6396 0.7631 0.0927
vn -0.7046 -0.3608 0.6110
vn -0.5381 -0.6867 -0.4888
vn 0.1364 -0.1307 -0.9820
vn -0.1063 0.5198 0.8476
vn 0.4510 0.8877 0.0924
vn -0.6498 -0.3677 -0.6652
vn -0.3730 0.1349 -0.9180
vn 0.0271 0.9991 0.0338
vn -0.2801 0.8279 0.4860
vn 0.4090 0.6144 -0.6748
vn -0.3548 0.7457 -0.5640
vn 0.6923 0.3996 -0.6009
vn 0.7577 0.3318 -0.5619
vn -0.5320 0.6912 -0.4890
vn -0.4886 -0.0885 0.8680
vn -0.6173 -0.4966 0.6102
vn -0.6805 -0.6975 0.2244
vn -0.7369 0.5733 0.3582
vn -0.9832 0.1818 0.0130
vn -0.9271 -0.1505 -0.3434
vn -0.0678 -0.3103 -0.9482
vn 0.3220 -0.1531 -0.9343
vn 0.5903 -0.3263 -0.7383
vn 0.9660 -0.2586 0.0042
vn 0.2082 -0.1944 -0.9586
vn 0.1718 -0.0662 -0.9829
vn 0.3819 -0.0066 -0.9242
vn -0.8235 -0.4484 0.3476
vt 0.183775 0.265565
vt 0.241938 0.273346
vt 0.234131 0.320356
vt 0.178646 0.320245
vt 0.124014 0.330579
vt 0.132699 0.271640
vt 0.067325 0.340490
vt 0.067436 0.296845
vt 0.095006 0.265878
vt 0.105739 0.264129
vt 0.597733 0.409574
vt 0.602258 0.392669
vt 0.650467 0.384609
vt 0.644746 0.411905
vt 0.223509 0.384948
vt 0.220132 0.455680
vt 0.175373 0.452459
vt 0.174552 0.382723
vt 0.122095 0.456935
vt 0.121365 0.386057
vt 0.065452 0.450093
vt 0.066691 0.396290
vt 0.289567 0.350627
vt 0.315932 0.352775
vt 0.330726 0.386899
vt 0.284628 0.413794
vt 0.306429 0.184147
vt 0.291772 0.234375
vt 0.261480 0.220989
vt 0.279623 0.173160
vt 0.563897 0.283880
vt 0.601311 0.307070
vt 0.585165 0.329364
vt 0.552404 0.303779
vt 0.635773 0.433886
vt 0.598907 0.427912
vt 0.332702 0.344566
vt 0.341236 0.376905
vt 0.630796 0.447618
vt 0.600975 0.441876
vt 0.674654 0.453695
vt 0.662498 0.464263
vt 0.366664 0.406843
vt 0.356206 0.422172
vt 0.708624 0.529863
vt 0.702349 0.497514
vt 0.729208 0.493339
vt 0.723365 0.528264
vt 0.239556 0.202463
vt 0.258293 0.165096
vt 0.608655 0.233044
vt 0.617500 0.228690
vt 0.632837 0.251461
vt 0.614136 0.256520
vt 0.286870 0.155713
vt 0.312132 0.165365
vt 0.537973 0.298169
vt 0.549371 0.280209
vt 0.264478 0.147763
vt 0.573497 0.248697
vt 0.559842 0.246377
vt 0.559910 0.226426
vt 0.574588 0.228663
vt 0.292824 0.140729
vt 0.317158 0.148764
vt 0.526299 0.290935
vt 0.536590 0.272698
vt 0.270791 0.130924
vt 0.542737 0.243355
vt 0.545297 0.226262
vt 0.302712 0.110646
vt 0.324382 0.116468
vt 0.502779 0.278704
vt 0.510785 0.262361
vt 0.280803 0.102471
vt 0.518597 0.240476
vt 0.521091 0.222272
vt 0.224775 0.502610
vt 0.249191 0.451273
vt 0.277355 0.511457
vt 0.176204 0.503769
vt 0.174207 0.548714
vt 0.114738 0.534892
vt 0.116653 0.495160
vt 0.064525 0.516328
vt 0.063408 0.481125
vt 0.317684 0.456971
vt 0.304727 0.101884
vt 0.327985 0.108012
vt 0.496021 0.275662
vt 0.504206 0.259299
vt 0.284405 0.093137
vt 0.511185 0.237691
vt 0.513440 0.219905
vt 0.306364 0.094986
vt 0.329691 0.100503
vt 0.490202 0.273585
vt 0.497754 0.257742
vt 0.285536 0.085554
vt 0.504681 0.235672
vt 0.507197 0.220478
vt 0.310104 0.083649
vt 0.334638 0.079256
vt 0.475944 0.263531
vt 0.481258 0.252153
vt 0.293588 0.068493
vt 0.490133 0.230354
vt 0.492186 0.217708
vt 0.459678 0.248816
vt 0.466002 0.239876
vt 0.470620 0.228251
vt 0.470165 0.218250
vt 0.364038 0.313490
vt 0.378921 0.344520
vt 0.623280 0.482324
vt 0.606049 0.477343
vt 0.636294 0.498764
vt 0.400884 0.367498
vt 0.666735 0.532103
vt 0.650799 0.511935
vt 0.222057 0.247369
vt 0.230017 0.210180
vt 0.252298 0.245035
vt 0.290121 0.254855
vt 0.279833 0.285883
vt 0.209492 0.247282
vt 0.218384 0.209811
vt 0.185712 0.218935
vt 0.161175 0.244865
vt 0.159943 0.206698
vt 0.149917 0.248235
vt 0.126939 0.228209
vt 0.151660 0.208918
vt 0.099096 0.227039
vt 0.088339 0.226858
vt 0.062054 0.247554
vt 0.037730 0.344406
vt 0.036741 0.303449
vt 0.033894 0.251314
vt 0.652441 0.230912
vt 0.620000 0.219302
vt 0.485536 0.242302
vt 0.468223 0.234531
vt 0.501806 0.246413
vt 0.507843 0.248700
vt 0.515756 0.249818
vt 0.538763 0.257548
vt 0.553718 0.261605
vt 0.568690 0.264165
vt 0.609955 0.281406
vt 0.457380 0.229838
vt 0.304104 0.064824
vt 0.313251 0.071902
vt 0.326150 0.069825
vt 0.314782 0.048142
vt 0.306963 0.048607
vt 0.320707 0.042647
vt 0.320959 0.048667
vt 0.326595 0.050848
vt 0.333888 0.053453
vt 0.698291 0.229103
vt 0.634456 0.293551
vt 0.734858 0.147340
vt 0.759182 0.184406
vt 0.728909 0.190672
vt 0.726399 0.147033
vt 0.035558 0.393893
vt 0.929913 0.343269
vt 0.913585 0.347398
vt 0.907050 0.301907
vt 0.930094 0.309775
vt 0.917262 0.256606
vt 0.934517 0.266552
vt 0.938829 0.382194
vt 0.919515 0.387425
vt 0.868176 0.211077
vt 0.837069 0.192153
vt 0.862810 0.160147
vt 0.866628 0.168278
vt 0.597054 0.339532
vt 0.619075 0.321146
vt 0.638069 0.350500
vt 0.604126 0.362342
vt 0.681938 0.336420
vt 0.734832 0.320256
vt 0.802010 0.209473
vt 0.224532 0.133716
vt 0.219472 0.191587
vt 0.190657 0.193090
vt 0.197460 0.133119
vt 0.627474 0.151153
vt 0.651166 0.206288
vt 0.627326 0.208473
vt 0.605550 0.162154
vt 0.163795 0.190256
vt 0.173273 0.128816
vt 0.713641 0.148626
vt 0.706461 0.177007
vt 0.200388 0.117373
vt 0.226473 0.115770
vt 0.597549 0.149846
vt 0.616857 0.137579
vt 0.176832 0.112732
vt 0.657364 0.131060
vt 0.646830 0.119675
vt 0.665815 0.103555
vt 0.674693 0.114155
vt 0.201556 0.102227
vt 0.227176 0.099413
vt 0.592853 0.137149
vt 0.610193 0.124630
vt 0.177493 0.095011
vt 0.635996 0.108153
vt 0.654257 0.094393
vt 0.205354 0.073092
vt 0.230908 0.073782
vt 0.584684 0.116549
vt 0.601028 0.107917
vt 0.181562 0.068498
vt 0.621578 0.094344
vt 0.635651 0.081515
vt 0.205718 0.063749
vt 0.230091 0.065032
vt 0.580736 0.110087
vt 0.597903 0.101101
vt 0.183652 0.058395
vt 0.617389 0.087304
vt 0.631000 0.074408
vt 0.206079 0.056564
vt 0.230234 0.057198
vt 0.576897 0.104693
vt 0.593339 0.095674
vt 0.183580 0.050395
vt 0.613381 0.081424
vt 0.625523 0.070682
vt 0.208238 0.043618
vt 0.232106 0.034978
vt 0.571757 0.086378
vt 0.581905 0.079047
vt 0.188944 0.030293
vt 0.603404 0.065409
vt 0.613357 0.058458
vt 0.566704 0.061927
vt 0.578486 0.060028
vt 0.589045 0.053103
vt 0.593598 0.044555
vt 0.591908 0.073006
vt 0.583384 0.056952
vt 0.604030 0.088570
vt 0.607662 0.094284
vt 0.611848 0.100764
vt 0.624568 0.111821
vt 0.633009 0.124843
vt 0.643209 0.139899
vt 0.686192 0.203153
vt 0.575636 0.044913
vt 0.198835 0.024038
vt 0.209087 0.030616
vt 0.221886 0.026344
vt 0.206009 0.005449
vt 0.198230 0.005911
vt 0.212106 0.000113
vt 0.211308 0.005006
vt 0.217247 0.007020
vt 0.224949 0.009372
vt 0.143665 0.143064
vt 0.146867 0.195697
vt 0.125234 0.204483
vt 0.119978 0.146621
vt 0.783094 0.108844
vt 0.770835 0.166382
vt 0.743782 0.138600
vt 0.760574 0.103907
vt 0.101620 0.209067
vt 0.096883 0.145461
vt 0.853076 0.150889
vt 0.828313 0.176978
vt 0.119893 0.129549
vt 0.143404 0.129003
vt 0.763072 0.093213
vt 0.783998 0.095926
vt 0.095700 0.128785
vt 0.815925 0.109152
vt 0.815075 0.095450
vt 0.833104 0.092220
vt 0.835144 0.105144
vt 0.119479 0.114175
vt 0.142337 0.112661
vt 0.764673 0.080383
vt 0.784617 0.082462
vt 0.095986 0.110774
vt 0.814456 0.079783
vt 0.832190 0.078372
vt 0.118290 0.081546
vt 0.140118 0.082615
vt 0.767684 0.057023
vt 0.786838 0.060817
vt 0.095349 0.080487
vt 0.811401 0.059208
vt 0.828889 0.053999
vt 0.118040 0.073112
vt 0.139888 0.074256
vt 0.768979 0.050404
vt 0.787489 0.053974
vt 0.096221 0.071018
vt 0.811351 0.051698
vt 0.827935 0.046157
vt 0.117908 0.066465
vt 0.139955 0.066750
vt 0.770064 0.044497
vt 0.787343 0.047243
vt 0.096034 0.062966
vt 0.810062 0.044885
vt 0.824674 0.040158
vt 0.117674 0.054152
vt 0.138695 0.044909
vt 0.775542 0.028243
vt 0.787225 0.029595
vt 0.098764 0.044263
vt 0.809530 0.028463
vt 0.821196 0.025006
vt 0.781819 0.008354
vt 0.792093 0.012083
vt 0.804854 0.011108
vt 0.812411 0.006353
vt 0.797493 0.029560
vt 0.797751 0.011774
vt 0.799147 0.046699
vt 0.799491 0.053206
vt 0.799990 0.060893
vt 0.800022 0.080197
vt 0.799948 0.095154
vt 0.798619 0.110373
vt 0.797862 0.183416
vt 0.797126 0.000113
vt 0.107237 0.037440
vt 0.117276 0.042426
vt 0.128528 0.037549
vt 0.112389 0.020279
vt 0.105052 0.021856
vt 0.117720 0.013142
vt 0.117708 0.019458
vt 0.123051 0.020625
vt 0.130709 0.022649
vt 0.067391 0.185344
vt 0.076852 0.211674
vt 0.056548 0.222752
vt 0.046593 0.194444
vt 0.909822 0.197070
vt 0.888574 0.208273
vt 0.879224 0.176902
vt 0.900511 0.176587
vt 0.033340 0.231449
vt 0.024410 0.203347
vt 0.940714 0.252866
vt 0.924968 0.241324
vt 0.042293 0.183379
vt 0.062499 0.173102
vt 0.910692 0.173296
vt 0.921869 0.190920
vt 0.020181 0.191548
vt 0.937569 0.225953
vt 0.945439 0.218160
vt 0.956751 0.225107
vt 0.950932 0.232855
vt 0.038184 0.170930
vt 0.057013 0.160087
vt 0.920307 0.167133
vt 0.932975 0.182996
vt 0.016454 0.179474
vt 0.949661 0.207197
vt 0.962218 0.216846
vt 0.027333 0.139249
vt 0.046702 0.131645
vt 0.941230 0.156181
vt 0.949110 0.170509
vt 0.006975 0.146911
vt 0.965342 0.188827
vt 0.979407 0.196396
vt 0.024625 0.130554
vt 0.044340 0.122716
vt 0.947557 0.152668
vt 0.954438 0.166611
vt 0.004993 0.136975
vt 0.970456 0.182712
vt 0.984230 0.190083
vt 0.022980 0.124334
vt 0.041708 0.116508
vt 0.951634 0.149344
vt 0.959309 0.162414
vt 0.003071 0.130926
vt 0.974383 0.178198
vt 0.985211 0.185238
vt 0.019660 0.114605
vt 0.036328 0.100552
vt 0.963460 0.143844
vt 0.969552 0.152245
vt 0.000113 0.110588
vt 0.984165 0.166646
vt 0.993780 0.171854
vt 0.980404 0.135943
vt 0.983344 0.144882
vt 0.992151 0.152572
vt 0.999887 0.154566
vt 0.976110 0.159280
vt 0.987698 0.148552
vt 0.966921 0.170773
vt 0.962723 0.174696
vt 0.957697 0.179444
vt 0.942078 0.194682
vt 0.934681 0.201902
vt 0.921027 0.214209
vt 0.902936 0.229949
vt 0.995099 0.141100
vt 0.006059 0.102203
vt 0.016368 0.104043
vt 0.025354 0.096581
vt 0.006769 0.085198
vt 0.000596 0.088900
vt 0.009214 0.077671
vt 0.011110 0.083267
vt 0.016004 0.082869
vt 0.023302 0.082649
vt 0.890038 0.249852
vt 0.813568 0.299997
vt 0.886913 0.295392
vt 0.695889 0.396100
vt 0.692578 0.434471
vt 0.884246 0.338982
vt 0.826260 0.354326
vt 0.741671 0.446736
vt 0.751549 0.392468
vt 0.862093 0.440711
vt 0.836481 0.453726
vt 0.801570 0.418246
vt 0.836463 0.400636
vt 0.764742 0.491761
vt 0.802561 0.499097
vt 0.792862 0.540229
vt 0.763791 0.535929
vt 0.778127 0.452115
vt 0.026386 0.508183
vt 0.032600 0.475789
vt 0.969184 0.567122
vt 0.912439 0.494068
vt 0.946646 0.471777
vt 0.999887 0.544843
vt 0.094693 0.632619
vt 0.047095 0.629853
vt 0.162055 0.639929
vt 0.223642 0.548690
vt 0.210735 0.641004
vt 0.271104 0.550133
vt 0.268358 0.649356
vt 0.843557 0.561785
vt 0.869917 0.528602
vt 0.932968 0.597357
vt 0.892610 0.623392
vt 0.258523 0.400306
vt 0.278658 0.327493
vt 0.391122 0.336153
vt 0.411386 0.359333
vt 0.658906 0.538605
vt 0.642965 0.518985
vt 0.375105 0.306318
vt 0.613871 0.495615
vt 0.598807 0.484438
vt 0.401190 0.328560
vt 0.419375 0.352503
vt 0.651558 0.542340
vt 0.635561 0.526049
vt 0.383806 0.299766
vt 0.611219 0.504096
vt 0.595536 0.492454
vt 0.412952 0.318264
vt 0.440381 0.333646
vt 0.630774 0.551392
vt 0.620826 0.537885
vt 0.409753 0.287475
vt 0.599432 0.520183
vt 0.583275 0.512181
vt 0.607264 0.558370
vt 0.603494 0.549139
vt 0.588795 0.536566
vt 0.580790 0.537073
vt 0.607704 0.531203
vt 0.595483 0.544224
vt 0.620361 0.516883
vt 0.627828 0.508391
vt 0.587485 0.552864
vt 0.421212 0.293441
vt 0.427124 0.309174
vt 0.439297 0.318855
vt 0.442274 0.287229
vt 0.437705 0.279532
vt 0.453661 0.288425
vt 0.447707 0.294161
vt 0.451051 0.301061
vt 0.457155 0.309052
vt 0.816304 0.546672
vt 0.843775 0.498055
vt 0.890821 0.466744
vt 0.912337 0.430079
vt 0.941708 0.419989
vt 0.939179 0.446981
vt 0.036460 0.441777
vt 0.805163 0.472476
vt 0.873752 0.403518
vt 0.881282 0.380391
vt 0.276857 0.449105
vt 0.296565 0.487629
vt 0.000113 0.619112
s 1
usemtl Material
f 2/1/1 3/2/2 88/3/3 92/4/4
f 92/4/4 91/5/5 6/6/6 2/1/1
f 91/5/5 90/7/7 7/8/8 6/6/6
f 6/6/6 7/8/8 76/9/9 75/10/10
f 9/11/11 343/12/12 381/13/13 14/14/14
f 1/15/15 375/16/16 10/17/17 4/18/18
f 4/18/18 10/17/17 11/19/19 5/20/20
f 5/20/20 11/19/19 12/21/21 8/22/22
f 9/23/11 20/24/23 13/25/24 342/26/25
f 18/27/26 98/28/27 97/29/28 17/30/29
f 19/31/30 99/32/31 98/33/27 18/34/26
f 14/14/14 21/35/32 20/36/23 9/11/11
f 20/24/23 23/37/33 60/38/34 13/25/24
f 21/35/32 24/39/35 23/40/33 20/36/23
f 22/41/36 25/42/37 24/39/35 21/35/32
f 60/38/34 61/43/38 315/44/39 13/25/24
f 61/45/38 62/46/40 317/47/41 315/48/39
f 97/29/28 96/49/42 27/50/43 17/30/29
f 96/51/42 26/52/44 79/53/45 112/54/46
f 17/30/29 28/55/47 29/56/48 18/27/26
f 18/34/26 29/57/48 30/58/49 19/31/30
f 27/50/43 31/59/50 28/55/47 17/30/29
f 109/60/51 110/61/52 31/62/50 27/63/43
f 28/55/47 32/64/53 33/65/54 29/56/48
f 29/57/48 33/66/54 34/67/55 30/58/49
f 31/59/50 35/68/56 32/64/53 28/55/47
f 110/61/52 36/69/57 35/70/56 31/62/50
f 32/64/53 37/71/58 38/72/59 33/65/54
f 33/66/54 38/73/59 39/74/60 34/67/55
f 35/68/56 40/75/61 37/71/58 32/64/53
f 36/69/57 41/76/62 40/77/61 35/70/56
f 374/78/63 375/16/16 341/79/64 392/80/65
f 379/81/66 326/82/67 327/83/68 378/84/69
f 378/84/69 327/83/68 323/85/70 377/86/71
f 13/25/24 315/44/39 316/87/72 342/26/25
f 37/71/58 42/88/73 43/89/74 38/72/59
f 38/73/59 43/90/74 44/91/75 39/74/60
f 40/75/61 45/92/76 42/88/73 37/71/58
f 41/76/62 46/93/77 45/94/76 40/77/61
f 42/88/73 47/95/78 48/96/79 43/89/74
f 43/90/74 48/97/79 49/98/80 44/91/75
f 45/92/76 50/99/81 47/95/78 42/88/73
f 46/93/77 51/100/82 50/101/81 45/94/76
f 47/95/78 52/102/83 53/103/84 48/96/79
f 48/97/79 53/104/84 54/105/85 49/98/80
f 50/99/81 55/106/86 52/102/83 47/95/78
f 51/100/82 56/107/87 55/108/86 50/101/81
f 53/104/84 57/109/88 58/110/89 54/105/85
f 56/107/87 59/111/90 80/112/91 55/108/86
f 62/46/40 25/42/37 22/41/36 317/47/41
f 23/37/33 64/113/92 63/114/93 60/38/34
f 24/39/35 65/115/94 64/116/92 23/40/33
f 25/42/37 66/117/95 65/115/94 24/39/35
f 60/38/34 63/114/93 67/118/96 61/43/38
f 61/45/38 67/119/96 68/120/97 62/46/40
f 62/46/40 68/120/97 66/117/95 25/42/37
f 3/2/2 71/121/98 26/122/44 69/123/99
f 3/2/2 69/123/99 70/124/100 15/125/101
f 2/1/1 72/126/102 71/121/98 3/2/2
f 71/121/98 72/126/102 176/127/103 26/122/44
f 175/128/104 176/127/103 72/126/102 2/1/1
f 2/1/1 73/129/105 121/130/106 175/128/104
f 74/131/107 73/129/105 2/1/1 6/6/6
f 241/132/108 242/133/109 74/131/107 6/6/6
f 73/129/105 74/131/107 242/133/109 121/130/106
f 6/6/6 75/10/10 187/134/110 241/132/108
f 75/10/10 76/9/9 307/135/111 187/134/110
f 76/9/9 7/8/8 306/136/112 307/135/111
f 90/7/7 89/137/113 77/138/114 7/8/8
f 7/8/8 77/138/114 252/139/115 306/136/112
f 177/140/116 79/53/45 26/52/44 176/141/103
f 59/111/90 56/107/87 101/142/117 100/143/118
f 101/142/117 56/107/87 51/100/82 102/144/119
f 102/144/119 51/100/82 46/93/77 103/145/120
f 103/145/120 46/93/77 41/76/62 104/146/121
f 104/146/121 41/76/62 36/69/57 105/147/122
f 105/147/122 36/69/57 110/61/52 106/148/123
f 106/148/123 110/61/52 109/60/51 107/149/124
f 109/60/51 112/54/46 111/150/125 107/149/124
f 58/110/89 57/109/88 108/151/126 100/143/118
f 85/152/127 84/153/128 52/102/83 55/106/86
f 83/154/129 53/103/84 52/102/83 84/153/128
f 86/155/130 80/156/91 108/157/126 81/158/131
f 87/159/132 83/154/129 84/153/128 81/158/131
f 81/158/131 84/153/128 85/152/127 86/155/130
f 85/152/127 55/106/86 80/156/91 86/155/130
f 83/154/129 87/159/132 57/160/88 53/103/84
f 79/53/45 177/140/116 178/161/133 94/162/134
f 242/163/109 243/164/135 123/165/136 121/166/106
f 89/137/113 90/7/7 8/22/22 78/167/137
f 90/7/7 91/5/5 5/20/20 8/22/22
f 91/5/5 92/4/4 4/18/18 5/20/20
f 89/168/113 312/169/138 93/170/139 77/171/114
f 77/171/114 93/170/139 254/172/140 252/173/115
f 78/174/137 318/175/141 312/169/138 89/168/113
f 308/176/142 189/177/143 187/178/110 307/179/111
f 70/180/100 16/181/144 82/182/145 15/183/101
f 16/181/144 94/162/134 337/184/146 82/182/145
f 94/162/134 178/161/133 336/185/147 337/184/146
f 178/161/133 123/165/136 243/164/135 95/186/148
f 96/49/42 97/29/28 69/123/99 26/122/44
f 97/29/28 98/28/27 70/124/100 69/123/99
f 70/180/100 98/33/27 99/32/31 16/181/144
f 58/110/89 100/143/118 101/142/117 54/105/85
f 54/105/85 101/142/117 102/144/119 49/98/80
f 49/98/80 102/144/119 103/145/120 44/91/75
f 44/91/75 103/145/120 104/146/121 39/74/60
f 39/74/60 104/146/121 105/147/122 34/67/55
f 34/67/55 105/147/122 106/148/123 30/58/49
f 30/58/49 106/148/123 107/149/124 19/31/30
f 107/149/124 111/150/125 99/32/31 19/31/30
f 59/111/90 100/143/118 108/151/126 80/112/91
f 87/159/132 81/158/131 108/157/126 57/160/88
f 96/51/42 112/54/46 109/60/51 27/63/43
f 16/181/144 99/32/31 111/150/125 94/162/134
f 94/162/134 111/150/125 112/54/46 79/53/45
f 114/187/149 113/188/150 116/189/151 115/190/152
f 118/191/153 117/192/154 113/193/150 114/194/149
f 116/189/151 120/195/155 119/196/156 115/190/152
f 120/197/155 121/166/106 123/165/136 122/198/157
f 115/190/152 125/199/158 124/200/159 114/187/149
f 114/194/149 124/201/159 126/202/160 118/191/153
f 119/196/156 127/203/161 125/199/158 115/190/152
f 128/204/162 165/205/163 127/206/161 119/207/156
f 125/199/158 130/208/164 129/209/165 124/200/159
f 124/201/159 129/210/165 131/211/166 126/202/160
f 127/203/161 132/212/167 130/208/164 125/199/158
f 165/205/163 137/213/168 132/214/167 127/206/161
f 130/208/164 134/215/169 133/216/170 129/209/165
f 129/210/165 133/217/170 135/218/171 131/211/166
f 132/212/167 136/219/172 134/215/169 130/208/164
f 137/213/168 138/220/173 136/221/172 132/214/167
f 134/215/169 140/222/174 139/223/175 133/216/170
f 133/217/170 139/224/175 141/225/176 135/218/171
f 136/219/172 142/226/177 140/222/174 134/215/169
f 138/220/173 143/227/178 142/228/177 136/221/172
f 140/222/174 145/229/179 144/230/180 139/223/175
f 139/224/175 144/231/180 146/232/181 141/225/176
f 142/226/177 147/233/182 145/229/179 140/222/174
f 143/227/178 148/234/183 147/235/182 142/228/177
f 145/229/179 150/236/184 149/237/185 144/230/180
f 144/231/180 149/238/185 151/239/186 146/232/181
f 147/233/182 152/240/187 150/236/184 145/229/179
f 148/234/183 153/241/188 152/242/187 147/235/182
f 149/238/185 155/243/189 154/244/190 151/239/186
f 153/241/188 157/245/191 156/246/192 152/242/187
f 157/245/191 153/241/188 159/247/193 158/248/194
f 159/247/193 153/241/188 148/234/183 160/249/195
f 160/249/195 148/234/183 143/227/178 161/250/196
f 161/250/196 143/227/178 138/220/173 162/251/197
f 162/251/197 138/220/173 137/213/168 163/252/198
f 163/252/198 137/213/168 165/205/163 164/253/199
f 164/253/199 165/205/163 128/204/162 166/254/200
f 128/204/162 122/198/157 167/255/201 166/254/200
f 154/244/190 155/243/189 168/256/202 158/248/194
f 169/257/203 170/258/204 150/236/184 152/240/187
f 171/259/205 149/237/185 150/236/184 170/258/204
f 172/260/206 156/261/192 168/262/202 173/263/207
f 174/264/208 171/259/205 170/258/204 173/263/207
f 173/263/207 170/258/204 169/257/203 172/260/206
f 169/257/203 152/240/187 156/261/192 172/260/206
f 171/259/205 174/264/208 155/265/189 149/237/185
f 120/195/155 116/189/151 175/128/104 121/130/106
f 116/189/151 113/188/150 176/127/103 175/128/104
f 176/141/103 113/193/150 117/192/154 177/140/116
f 154/244/190 158/248/194 159/247/193 151/239/186
f 151/239/186 159/247/193 160/249/195 146/232/181
f 146/232/181 160/249/195 161/250/196 141/225/176
f 141/225/176 161/250/196 162/251/197 135/218/171
f 135/218/171 162/251/197 163/252/198 131/211/166
f 131/211/166 163/252/198 164/253/199 126/202/160
f 126/202/160 164/253/199 166/254/200 118/191/153
f 166/254/200 167/255/201 117/192/154 118/191/153
f 157/245/191 158/248/194 168/256/202 156/246/192
f 174/264/208 173/263/207 168/262/202 155/265/189
f 120/197/155 122/198/157 128/204/162 119/207/156
f 177/140/116 117/192/154 167/255/201 178/161/133
f 178/161/133 167/255/201 122/198/157 123/165/136
f 180/266/209 179/267/210 182/268/211 181/269/212
f 184/270/213 183/271/214 179/272/210 180/273/209
f 182/268/211 186/274/215 185/275/216 181/269/212
f 186/276/215 187/178/110 189/177/143 188/277/217
f 181/269/212 191/278/218 190/279/219 180/266/209
f 180/273/209 190/280/219 192/281/220 184/270/213
f 185/275/216 193/282/221 191/278/218 181/269/212
f 194/283/222 199/284/223 193/285/221 185/286/216
f 191/278/218 196/287/224 195/288/225 190/279/219
f 190/280/219 195/289/225 197/290/226 192/281/220
f 193/282/221 198/291/227 196/287/224 191/278/218
f 199/284/223 204/292/228 198/293/227 193/285/221
f 196/287/224 201/294/229 200/295/230 195/288/225
f 195/289/225 200/296/230 202/297/231 197/290/226
f 198/291/227 203/298/232 201/294/229 196/287/224
f 204/292/228 205/299/233 203/300/232 198/293/227
f 201/294/229 207/301/234 206/302/235 200/295/230
f 200/296/230 206/303/235 208/304/236 202/297/231
f 203/298/232 209/305/237 207/301/234 201/294/229
f 205/299/233 210/306/238 209/307/237 203/300/232
f 207/301/234 212/308/239 211/309/240 206/302/235
f 206/303/235 211/310/240 213/311/241 208/304/236
f 209/305/237 214/312/242 212/308/239 207/301/234
f 210/306/238 215/313/243 214/314/242 209/307/237
f 212/308/239 217/315/244 216/316/245 211/309/240
f 211/310/240 216/317/245 218/318/246 213/311/241
f 214/312/242 219/319/247 217/315/244 212/308/239
f 215/313/243 220/320/248 219/321/247 214/314/242
f 216/317/245 222/322/249 221/323/250 218/318/246
f 220/320/248 224/324/251 223/325/252 219/321/247
f 224/324/251 220/320/248 226/326/253 225/327/254
f 226/326/253 220/320/248 215/313/243 227/328/255
f 227/328/255 215/313/243 210/306/238 228/329/256
f 228/329/256 210/306/238 205/299/233 229/330/257
f 229/330/257 205/299/233 204/292/228 230/331/258
f 230/331/258 204/292/228 199/284/223 231/332/259
f 231/332/259 199/284/223 194/283/222 232/333/260
f 194/283/222 188/277/217 233/334/261 232/333/260
f 221/323/250 222/322/249 234/335/262 225/327/254
f 235/336/263 236/337/264 217/315/244 219/319/247
f 237/338/265 216/316/245 217/315/244 236/337/264
f 238/339/266 223/340/252 234/341/262 239/342/267
f 240/343/268 237/338/265 236/337/264 239/342/267
f 239/342/267 236/337/264 235/336/263 238/339/266
f 235/336/263 219/319/247 223/340/252 238/339/266
f 237/338/265 240/343/268 222/344/249 216/316/245
f 186/274/215 182/268/211 241/132/108 187/134/110
f 182/268/211 179/267/210 242/133/109 241/132/108
f 242/163/109 179/272/210 183/271/214 243/164/135
f 221/323/250 225/327/254 226/326/253 218/318/246
f 218/318/246 226/326/253 227/328/255 213/311/241
f 213/311/241 227/328/255 228/329/256 208/304/236
f 208/304/236 228/329/256 229/330/257 202/297/231
f 202/297/231 229/330/257 230/331/258 197/290/226
f 197/290/226 230/331/258 231/332/259 192/281/220
f 192/281/220 231/332/259 232/333/260 184/270/213
f 232/333/260 233/334/261 183/271/214 184/270/213
f 224/324/251 225/327/254 234/335/262 223/325/252
f 240/343/268 239/342/267 234/341/262 222/344/249
f 186/276/215 188/277/217 194/283/222 185/286/216
f 243/164/135 183/271/214 233/334/261 95/186/148
f 95/186/148 233/334/261 188/277/217 189/177/143
f 245/345/269 244/346/270 247/347/271 246/348/272
f 249/349/273 248/350/274 244/351/270 245/352/269
f 247/347/271 251/353/275 250/354/276 246/348/272
f 251/355/275 252/173/115 254/172/140 253/356/277
f 246/348/272 256/357/278 255/358/279 245/345/269
f 245/352/269 255/359/279 257/360/280 249/349/273
f 250/354/276 258/361/281 256/357/278 246/348/272
f 297/362/282 295/363/283 258/364/281 250/365/276
f 256/357/278 260/366/284 259/367/285 255/358/279
f 255/359/279 259/368/285 261/369/286 257/360/280
f 258/361/281 262/370/287 260/366/284 256/357/278
f 295/363/283 267/371/288 262/372/287 258/364/281
f 260/366/284 264/373/289 263/374/290 259/367/285
f 259/368/285 263/375/290 265/376/291 261/369/286
f 262/370/287 266/377/292 264/373/289 260/366/284
f 267/371/288 268/378/293 266/379/292 262/372/287
f 264/373/289 270/380/294 269/381/295 263/374/290
f 263/375/290 269/382/295 271/383/296 265/376/291
f 266/377/292 272/384/297 270/380/294 264/373/289
f 268/378/293 273/385/298 272/386/297 266/379/292
f 270/380/294 275/387/299 274/388/300 269/381/295
f 269/382/295 274/389/300 276/390/301 271/383/296
f 272/384/297 277/391/302 275/387/299 270/380/294
f 273/385/298 278/392/303 277/393/302 272/386/297
f 275/387/299 280/394/304 279/395/305 274/388/300
f 274/389/300 279/396/305 281/397/306 276/390/301
f 277/391/302 282/398/307 280/394/304 275/387/299
f 278/392/303 283/399/308 282/400/307 277/393/302
f 279/396/305 285/401/309 284/402/310 281/397/306
f 283/399/308 287/403/311 286/404/312 282/400/307
f 287/403/311 283/399/308 289/405/313 288/406/314
f 289/405/313 283/399/308 278/392/303 290/407/315
f 290/407/315 278/392/303 273/385/298 291/408/316
f 291/408/316 273/385/298 268/378/293 292/409/317
f 292/409/317 268/378/293 267/371/288 293/410/318
f 293/410/318 267/371/288 295/363/283 294/411/319
f 294/411/319 295/363/283 297/362/282 296/412/320
f 297/362/282 253/356/277 298/413/321 296/412/320
f 284/402/310 285/401/309 299/414/322 288/406/314
f 300/415/323 301/416/324 280/394/304 282/398/307
f 302/417/325 279/395/305 280/394/304 301/416/324
f 303/418/326 286/419/312 299/420/322 304/421/327
f 305/422/328 302/417/325 301/416/324 304/421/327
f 304/421/327 301/416/324 300/415/323 303/418/326
f 300/415/323 282/398/307 286/419/312 303/418/326
f 302/417/325 305/422/328 285/423/309 279/395/305
f 251/353/275 247/347/271 306/136/112 252/139/115
f 247/347/271 244/346/270 307/135/111 306/136/112
f 307/179/111 244/351/270 248/350/274 308/176/142
f 284/402/310 288/406/314 289/405/313 281/397/306
f 281/397/306 289/405/313 290/407/315 276/390/301
f 276/390/301 290/407/315 291/408/316 271/383/296
f 271/383/296 291/408/316 292/409/317 265/376/291
f 265/376/291 292/409/317 293/410/318 261/369/286
f 261/369/286 293/410/318 294/411/319 257/360/280
f 257/360/280 294/411/319 296/412/320 249/349/273
f 296/412/320 298/413/321 248/350/274 249/349/273
f 287/403/311 288/406/314 299/414/322 286/404/312
f 305/422/328 304/421/327 299/420/322 285/423/309
f 251/355/275 253/356/277 297/362/282 250/365/276
f 308/176/142 248/350/274 298/413/321 309/424/329
f 309/424/329 298/413/321 253/356/277 254/172/140
f 308/176/142 309/424/329 95/186/148 189/177/143
f 95/186/148 310/425/330 336/185/147 178/161/133
f 309/424/329 311/426/331 310/425/330 95/186/148
f 311/426/331 309/424/329 254/172/140 93/170/139
f 339/427/332 382/428/333 14/14/14 381/13/13
f 311/426/331 314/429/334 313/430/335 310/425/330
f 93/170/139 312/169/138 314/429/334 311/426/331
f 382/428/333 320/431/336 317/47/41 22/41/36
f 320/431/336 382/428/333 339/427/332 338/432/337
f 321/433/338 384/434/339 319/435/340 388/436/341
f 335/437/342 390/438/343 389/439/344 316/440/72
f 319/435/340 383/441/345 320/431/336 338/432/337
f 377/86/71 323/85/70 397/442/346 394/443/347
f 334/444/348 393/445/349 397/446/346 398/447/350
f 323/85/70 327/83/68 329/448/351 328/449/352
f 327/83/68 326/82/67 330/450/353 329/448/351
f 326/82/67 340/451/354 331/452/355 330/450/353
f 340/451/354 325/453/356 332/454/357 331/452/355
f 325/455/356 376/456/358 333/457/359 332/458/357
f 376/456/358 393/445/349 334/444/348 333/457/359
f 336/185/147 338/432/337 339/427/332 337/184/146
f 336/185/147 310/425/330 313/430/335 338/432/337
f 381/13/13 82/182/145 337/184/146 339/427/332
f 88/3/3 1/15/15 4/18/18 92/4/4
f 386/459/360 1/15/15 88/3/3 343/460/12
f 343/460/12 88/3/3 3/2/2 15/125/101
f 325/453/356 340/451/354 374/78/63 392/80/65
f 63/114/93 344/461/361 345/462/362 67/118/96
f 67/119/96 345/463/362 346/464/363 68/120/97
f 64/113/92 347/465/364 344/461/361 63/114/93
f 65/115/94 348/466/365 347/467/364 64/116/92
f 344/461/361 349/468/366 350/469/367 345/462/362
f 345/463/362 350/470/367 351/471/368 346/464/363
f 347/465/364 352/472/369 349/468/366 344/461/361
f 348/466/365 353/473/370 352/474/369 347/467/364
f 349/468/366 354/475/371 355/476/372 350/469/367
f 350/470/367 355/477/372 356/478/373 351/471/368
f 352/472/369 357/479/374 354/475/371 349/468/366
f 353/473/370 358/480/375 357/481/374 352/474/369
f 355/477/372 359/482/376 360/483/377 356/478/373
f 358/480/375 361/484/378 362/485/379 357/481/374
f 361/484/378 358/480/375 363/486/380 364/487/381
f 363/486/380 358/480/375 353/473/370 365/488/382
f 365/488/382 353/473/370 348/466/365 366/489/383
f 366/489/383 348/466/365 65/115/94 66/117/95
f 360/483/377 359/482/376 367/490/384 364/487/381
f 368/491/385 369/492/386 354/475/371 357/479/374
f 370/493/387 355/476/372 354/475/371 369/492/386
f 371/494/388 362/495/379 367/496/384 372/497/389
f 373/498/390 370/493/387 369/492/386 372/497/389
f 372/497/389 369/492/386 368/491/385 371/494/388
f 368/491/385 357/479/374 362/495/379 371/494/388
f 370/493/387 373/498/390 359/499/376 355/476/372
f 360/483/377 364/487/381 363/486/380 356/478/373
f 356/478/373 363/486/380 365/488/382 351/471/368
f 351/471/368 365/488/382 366/489/383 346/464/363
f 346/464/363 366/489/383 66/117/95 68/120/97
f 361/484/378 364/487/381 367/490/384 362/485/379
f 373/498/390 372/497/389 367/496/384 359/499/376
f 326/82/67 379/81/66 374/78/63 340/451/354
f 1/15/15 386/459/360 341/79/64 375/16/16
f 325/455/356 392/500/65 322/501/391 376/456/358
f 324/502/392 387/503/393 380/504/394 394/505/347
f 377/86/71 12/21/21 11/19/19 378/84/69
f 378/84/69 11/19/19 10/17/17 379/81/66
f 379/81/66 10/17/17 375/16/16 374/78/63
f 78/167/137 8/22/22 12/21/21 380/506/394
f 14/14/14 382/428/333 22/41/36 21/35/32
f 343/12/12 15/183/101 82/182/145 381/13/13
f 319/435/340 384/434/339 385/507/395 383/441/345
f 9/23/11 342/26/25 386/459/360 343/460/12
f 318/175/141 387/503/393 395/508/396 396/509/397
f 384/434/339 322/501/391 390/438/343 385/507/395
f 386/459/360 342/26/25 391/510/398 341/79/64
f 318/175/141 78/174/137 380/504/394 387/503/393
f 319/435/340 338/432/337 313/430/335 388/436/341
f 388/436/341 313/430/335 314/429/334 396/509/397
f 396/509/397 314/429/334 312/169/138 318/175/141
f 320/431/336 383/441/345 335/437/342 317/47/41
f 383/441/345 385/507/395 390/438/343 335/437/342
f 316/440/72 315/48/39 317/47/41 335/437/342
f 390/438/343 322/501/391 392/500/65 389/439/344
f 391/510/398 342/26/25 316/87/72 389/511/344
f 391/510/398 389/511/344 392/80/65 341/79/64
f 380/506/394 12/21/21 377/86/71 394/443/347
f 324/502/392 322/501/391 384/434/339 321/433/338
f 376/456/358 322/501/391 324/502/392 393/445/349
f 387/503/393 324/502/392 321/433/338 395/508/396
f 395/508/396 321/433/338 388/436/341 396/509/397
f 393/445/349 324/502/392 394/505/347 397/446/346
f 397/442/346 323/85/70 328/449/352 398/512/350
